<?xml version="1.0" standalone="no"?>
<!DOCTYPE svg PUBLIC "-//W3C//DTD SVG 1.1//EN" "http://www.w3.org/Graphics/SVG/1.1/DTD/svg11.dtd" >
<svg xmlns="http://www.w3.org/2000/svg">
<metadata></metadata>
<defs>
<font id="conqueror_sanslight" horiz-adv-x="1024" >
<font-face units-per-em="2048" ascent="1536" descent="-512" />
<missing-glyph horiz-adv-x="563" />
<glyph horiz-adv-x="0" />
<glyph horiz-adv-x="682" />
<glyph unicode=" "  horiz-adv-x="563" />
<glyph unicode="&#x09;" horiz-adv-x="563" />
<glyph unicode="&#xa0;" horiz-adv-x="563" />
<glyph unicode="!" horiz-adv-x="434" d="M102 104q0 46 35 80.5t82 34.5q46 0 79.5 -34.5t33.5 -80.5q0 -47 -33.5 -80.5t-79.5 -33.5q-48 0 -82.5 33.5t-34.5 80.5zM119 1434h198l-49 -1061h-96z" />
<glyph unicode="&#x22;" horiz-adv-x="880" d="M106 989l158 375q15 39 43 66.5t62 27.5q38 0 67 -23t29 -71q0 -45 -33 -86l-264 -330zM422 989l158 375q15 40 42 67t62 27q37 0 65.5 -23t28.5 -71q0 -49 -30 -86l-265 -330z" />
<glyph unicode="#" horiz-adv-x="1443" d="M102 465v108h299l97 287h-293v109h327l164 465h123l-168 -465h322l157 465h121l-164 -465h254v-109h-290l-99 -287h303v-108h-337l-154 -465h-121l156 465h-320l-151 -465h-121l160 465h-265zM518 573h313l103 287h-318z" />
<glyph unicode="$" horiz-adv-x="1093" d="M102 135l80 129q121 -90 250 -127l78 543q-62 29 -102 50t-90.5 57t-79.5 72.5t-49.5 91t-20.5 118.5q0 80 24 148t75.5 125t143 89.5t214.5 32.5l18 127h113l-21 -139q112 -16 230 -74q-9 -19 -31 -66.5t-35 -72.5q-123 47 -186 59l-74 -495q62 -28 104.5 -50.5 t93.5 -59.5t81.5 -77t51.5 -98t21 -127q0 -83 -28 -157.5t-82 -133.5t-143.5 -94t-202.5 -35h-17l-20 -143h-113l23 158q-142 31 -306 149zM322 1094q0 -84 54 -138t159 -106q13 77 34.5 230.5t34.5 230.5h-18q-114 0 -189 -55t-75 -162zM541 121q137 0 213.5 63t76.5 185 q0 90 -56 149t-161 113z" />
<glyph unicode="%" horiz-adv-x="1413" d="M102 0l1074 1434h135l-1073 -1434h-136zM131 1128q0 151 74 233.5t203 82.5q126 0 202 -83.5t76 -232.5q0 -137 -77.5 -225t-200.5 -88q-126 0 -201.5 87.5t-75.5 225.5zM246 1128q0 -210 162 -210q86 0 126.5 57.5t40.5 152.5q0 97 -40.5 154t-126.5 57 q-162 0 -162 -211zM727 303q0 150 73 232.5t201 82.5q126 0 202.5 -83t76.5 -232q0 -137 -78 -225t-201 -88q-124 0 -199 87.5t-75 225.5zM840 303q0 -211 161 -211q86 0 127 58t41 153q0 97 -41 154t-127 57q-161 0 -161 -211z" />
<glyph unicode="&#x26;" horiz-adv-x="1402" d="M102 410q0 154 73.5 255t250.5 179q-137 187 -137 313q0 141 95.5 224t258.5 83q70 0 156.5 -23t126 -39.5t65.5 -29.5l-69 -135q-83 40 -167 59t-145 19q-81 0 -122.5 -40.5t-41.5 -103.5q0 -58 39.5 -123.5t110.5 -154.5l397 -506q115 212 115 506h152 q0 -376 -166 -633l204 -260h-221l-88 117q-31 -10 -35 -11q-166 -137 -401 -137q-189 0 -320 126.5t-131 314.5zM262 410q0 -138 100 -216.5t242 -78.5q159 0 285 129l-373 487q-124 -47 -189 -135.5t-65 -185.5z" />
<glyph unicode="'" horiz-adv-x="567" d="M106 989l158 375q15 39 43 66.5t62 27.5q38 0 67 -23t29 -71q0 -45 -33 -86l-264 -330z" />
<glyph unicode="(" horiz-adv-x="768" d="M102 569q0 306 136.5 537t425.5 410l63 -103q-121 -96 -201.5 -179t-145.5 -184t-95.5 -219t-30.5 -262t30.5 -261.5t95.5 -218t145.5 -183t201.5 -178.5l-63 -103q-290 180 -426 409.5t-136 534.5z" />
<glyph unicode=")" horiz-adv-x="768" d="M41 -272q121 96 201.5 178.5t145.5 183t95.5 218t30.5 261.5t-30.5 262t-95.5 219t-145.5 184t-201.5 179l63 103q289 -179 425.5 -410t136.5 -537q0 -305 -136 -534.5t-426 -409.5z" />
<glyph unicode="*" horiz-adv-x="862" d="M88 1141l37 119l256 -93l-12 267h123l-13 -267l256 93l39 -119l-260 -72l168 -215l-100 -74l-150 230l-151 -230l-101 74l166 215z" />
<glyph unicode="+" horiz-adv-x="1310" d="M102 543v119h494v493h119v-493h493v-119h-493v-494h-119v494h-494z" />
<glyph unicode="," horiz-adv-x="442" d="M78 -260l135 250q-45 5 -76 37t-31 77t35 80t82 35q56 0 93.5 -39.5t37.5 -107.5q0 -48 -43 -131t-85 -142t-76 -100z" />
<glyph unicode="-" horiz-adv-x="593" d="M61 461v119h471v-119h-471z" />
<glyph unicode="." horiz-adv-x="434" d="M102 104q0 46 35 80.5t82 34.5q46 0 79.5 -34.5t33.5 -80.5q0 -47 -33.5 -80.5t-79.5 -33.5q-48 0 -82.5 33.5t-34.5 80.5z" />
<glyph unicode="/" horiz-adv-x="997" d="M0 -354l870 1833h127l-870 -1833h-127z" />
<glyph unicode="0" d="M55 717q0 163 25 294t77 235t142.5 161t212.5 57t212.5 -57t142.5 -161t77 -235t25 -294q0 -129 -15 -238.5t-49.5 -205t-86.5 -162t-130 -104.5t-176 -38t-176 38t-130 104.5t-86.5 162t-49.5 205t-15 238.5zM231 717q0 -313 65 -454.5t216 -141.5t216 141.5t65 454.5 t-65 454.5t-216 141.5t-216 -141.5t-65 -454.5z" />
<glyph unicode="1" d="M190 1186l365 248h72v-1282h204v-152h-573v152h205v1058l-215 -127z" />
<glyph unicode="2" d="M100 1274q187 190 424 190q80 0 146.5 -20t112 -54t77 -80.5t46 -99t14.5 -110.5q0 -125 -52.5 -238t-144.5 -239l-334 -459h524v-164h-782v66l453 620q161 219 161 383q0 244 -260 244q-130 0 -284 -154z" />
<glyph unicode="3" d="M80 92l76 133q155 -104 284 -104q60 0 116 18t103 53t75 93.5t28 132.5q0 103 -77.5 165t-186.5 62q-50 0 -109 -24l-63 137q204 88 303.5 175.5t99.5 196.5q0 79 -47 131t-147 52q-173 0 -306 -160l-100 115q90 92 190 144t244 52q72 0 130.5 -20.5t94.5 -52.5t60 -74.5 t33.5 -83.5t9.5 -82q0 -127 -76 -226.5t-207 -158.5q153 -20 242.5 -115.5t89.5 -230.5q0 -90 -32 -171t-91.5 -143.5t-153.5 -99.5t-210 -37q-190 0 -373 123z" />
<glyph unicode="4" d="M49 379v76l682 1007h72v-940h178v-143h-178v-379h-166v379h-588zM254 522h383v568z" />
<glyph unicode="5" d="M90 82l74 135q81 -50 141.5 -73t130.5 -23q57 0 111.5 17t106 53t83 103t31.5 157q0 136 -77 216.5t-212 80.5q-124 0 -192 -60l-90 76l127 670h596v-152h-474l-75 -412q59 27 143 27q178 0 299 -120.5t121 -319.5q0 -61 -12 -122t-46 -129t-86 -119t-140 -84.5 t-201 -33.5q-188 0 -359 113z" />
<glyph unicode="6" d="M88 633q0 149 14 268.5t49 227.5t91 179.5t144.5 113.5t205.5 42q186 0 305 -98l-82 -129q-95 76 -229 76q-161 0 -237 -118t-91 -396q21 17 55 38t101.5 45.5t128.5 24.5q100 0 176.5 -35.5t123 -98.5t70 -144t23.5 -178q0 -220 -118.5 -351t-301.5 -131 q-100 0 -175.5 32t-123 88t-77 141.5t-41 182t-11.5 220.5zM254 582q0 -86 6.5 -151.5t24 -126t46 -99t75 -61.5t108.5 -23q131 0 199.5 92t68.5 236t-68 229.5t-196 85.5q-62 0 -136 -35t-128 -78v-69z" />
<glyph unicode="7" d="M100 1282v152h830v-62l-561 -1372h-166l522 1282h-625z" />
<glyph unicode="8" d="M76 391q0 123 61 216.5t164 142.5q-85 40 -135.5 128.5t-50.5 184.5q0 186 110 293.5t287 107.5t287 -107.5t110 -293.5q0 -96 -50.5 -184.5t-135.5 -128.5q103 -49 164 -142.5t61 -216.5q0 -86 -25 -157t-67 -119.5t-98.5 -82t-118.5 -48.5t-127 -15t-127 15 t-118.5 48.5t-98.5 82t-67 119.5t-25 157zM242 391q0 -65 17.5 -114.5t44 -78t64 -47t72 -24.5t72.5 -6t72.5 6t72 24.5t64 47t44 78t17.5 114.5q0 137 -75 207t-195 70t-195 -70t-75 -207zM281 1065q0 -115 66 -180.5t165 -65.5t165 65.5t66 180.5q0 122 -61.5 185 t-169.5 63t-169.5 -63t-61.5 -185z" />
<glyph unicode="9" d="M86 983q0 220 116 350.5t298 130.5q103 0 180 -33.5t125.5 -91.5t78 -147.5t41 -189.5t11.5 -230q0 -144 -14 -260t-49 -219.5t-90.5 -173t-142.5 -110t-202 -40.5q-84 0 -167 26t-142 73q16 24 44 70t36 59q97 -76 233 -76q161 0 236.5 118t87.5 396q-34 -31 -115 -70 t-170 -39q-99 0 -176 35.5t-124 98.5t-71 145t-24 178zM240 985q0 -144 69 -230.5t197 -86.5q62 0 135 34.5t127 77.5v115q-5 201 -64.5 309.5t-199.5 108.5q-130 0 -197 -91.5t-67 -236.5z" />
<glyph unicode=":" horiz-adv-x="434" d="M102 104q0 46 35 80.5t82 34.5q46 0 79.5 -34.5t33.5 -80.5q0 -47 -33.5 -80.5t-79.5 -33.5q-48 0 -82.5 33.5t-34.5 80.5zM102 702q0 47 35 82t82 35q46 0 79.5 -35t33.5 -82q0 -46 -33.5 -79t-79.5 -33q-47 0 -82 33t-35 79z" />
<glyph unicode=";" horiz-adv-x="471" d="M92 -260l135 250q-45 5 -75.5 37t-30.5 77t35 80t80 35q58 0 95.5 -39.5t37.5 -107.5q0 -48 -45 -132.5t-83.5 -139t-76.5 -101.5zM121 702q0 47 34.5 82t80.5 35q47 0 80.5 -34.5t33.5 -82.5q0 -46 -33.5 -79t-80.5 -33q-46 0 -80.5 33.5t-34.5 78.5z" />
<glyph unicode="&#x3c;" horiz-adv-x="1062" d="M61 606l900 518v-137q-600 -345 -664 -381l664 -383v-135z" />
<glyph unicode="=" horiz-adv-x="1310" d="M102 346v119h1106v-119h-1106zM102 698v119h1106v-119h-1106z" />
<glyph unicode="&#x3e;" horiz-adv-x="1062" d="M102 88v137l662 381l-662 381v137l899 -518z" />
<glyph unicode="?" horiz-adv-x="862" d="M90 1358q92 40 162.5 58t153.5 18q87 0 154 -25.5t103.5 -62t59.5 -84t30 -84.5t7 -72q0 -67 -21.5 -122.5t-56.5 -94.5t-76.5 -73t-83.5 -67.5t-77 -69.5t-56.5 -86.5t-21.5 -111.5q0 -51 14 -108h-96q-49 85 -49 170q0 65 27.5 123t68.5 98.5t89 83t89 78t68.5 81.5 t27.5 95q0 91 -56.5 135.5t-139.5 44.5q-125 0 -267 -65zM219 104q0 46 35.5 80.5t81.5 34.5q47 0 81 -34.5t34 -80.5q0 -47 -34 -80.5t-81 -33.5q-46 0 -81.5 33.5t-35.5 80.5z" />
<glyph unicode="@" horiz-adv-x="1687" d="M92 289q0 141 48 268t131.5 223t193.5 167t238 108t260 37q294 0 463 -138.5t169 -375.5q0 -120 -36 -219.5t-94 -164.5t-135 -110t-156.5 -64.5t-159.5 -19.5v356q-72 -158 -179 -262t-235 -104q-87 0 -144 64t-57 212q0 106 54 207.5t149.5 182t238.5 129.5t308 49 v-691q53 8 109.5 43t104.5 89.5t79 133.5t31 164q0 87 -29.5 156.5t-78 114t-115.5 74t-138 41.5t-149 12q-108 0 -213.5 -25.5t-202.5 -81t-171 -134t-118.5 -192.5t-44.5 -249q0 -117 29.5 -211t79 -155.5t118 -102.5t142.5 -58.5t157 -17.5q123 0 271.5 35t255.5 98 l39 -117q-128 -65 -283.5 -101t-280.5 -36q-310 0 -479.5 179.5t-169.5 486.5zM535 266q0 -80 24.5 -111.5t67.5 -31.5q69 0 140 60t123 147.5t86 186t36 175.5q-104 0 -197 -46t-152 -113t-93.5 -139t-34.5 -128z" />
<glyph unicode="A" horiz-adv-x="1249" d="M27 0l493 1434h209l494 -1434h-176l-138 401h-581l-140 -401h-161zM381 553h475l-235 692z" />
<glyph unicode="B" horiz-adv-x="1120" d="M172 0v1434h420q73 0 140 -20t122.5 -60.5t89 -109t33.5 -157.5q0 -118 -62.5 -210t-179.5 -129q129 -29 208 -121.5t79 -229.5q0 -99 -37.5 -177t-99.5 -125t-137 -71t-156 -24h-420zM336 152h223q138 0 217.5 62t79.5 189t-80.5 195t-216.5 68h-223v-514zM336 817h207 q130 0 198 60t68 178t-67 172.5t-199 54.5h-207v-465z" />
<glyph unicode="C" horiz-adv-x="1304" d="M82 717q0 125 27 236.5t83.5 205.5t138 161.5t195.5 105.5t250 38q235 0 424 -84q-53 -131 -61 -147q-107 43 -183.5 61.5t-179.5 18.5q-233 0 -374.5 -163t-141.5 -433q0 -283 139.5 -439.5t376.5 -156.5q104 0 198.5 42t209.5 118q11 -22 35.5 -65t35.5 -64 q-27 -20 -59.5 -41.5t-100.5 -58.5t-152.5 -60t-166.5 -23q-171 0 -304 55.5t-218 155.5t-128.5 236t-43.5 301z" />
<glyph unicode="D" horiz-adv-x="1320" d="M170 0v1434h424q138 0 249.5 -43t184 -113t121.5 -164.5t69.5 -193t20.5 -203.5t-20.5 -204t-69.5 -193.5t-121.5 -164.5t-184 -112.5t-249.5 -42.5h-424zM336 152h227q496 0 496 565q0 271 -121 418t-375 147h-227v-1130z" />
<glyph unicode="E" horiz-adv-x="989" d="M172 0v1434h709v-152h-545v-465h495v-151h-495v-514h567v-152h-731z" />
<glyph unicode="F" horiz-adv-x="907" d="M170 0v1434h713v-152h-547v-471h495v-152h-495v-659h-166z" />
<glyph unicode="G" horiz-adv-x="1351" d="M82 717q0 125 27 236.5t83.5 205.5t138 161.5t195.5 105.5t250 38q250 0 441 -82q-47 -114 -62 -147q-108 40 -192 59t-187 19q-223 0 -369.5 -165t-146.5 -431q0 -279 144.5 -437.5t371.5 -158.5q161 0 334 104v457h172v-526q-1 -1 -22.5 -15t-38.5 -25t-50 -30t-63 -33 t-72 -31t-81.5 -27.5t-86.5 -18t-92 -7.5q-171 0 -304 55.5t-218 155.5t-128.5 236t-43.5 301z" />
<glyph unicode="H" horiz-adv-x="1429" d="M172 0v1434h164v-617h758v617h163v-1434h-163v666h-758v-666h-164z" />
<glyph unicode="I" horiz-adv-x="507" d="M172 0v1434h164v-1434h-164z" />
<glyph unicode="J" horiz-adv-x="540" d="M-96 -248q51 1 88.5 7t80 26t69.5 55t45 97t18 147v1350h164v-1350q0 -238 -111.5 -358.5t-353.5 -124.5v151z" />
<glyph unicode="K" horiz-adv-x="1214" d="M172 0v1434h164v-617h174l436 617h201l-488 -684l498 -750h-207l-428 666h-186v-666h-164z" />
<glyph unicode="L" horiz-adv-x="1003" d="M172 0v1434h164v-1282h629v-152h-793z" />
<glyph unicode="M" horiz-adv-x="1794" d="M152 0l75 1434h254l416 -1158l442 1158h242l61 -1434h-165l-50 1260l-469 -1260h-135l-454 1260l-64 -1260h-153z" />
<glyph unicode="N" horiz-adv-x="1476" d="M172 0v1434h117l866 -1119v1119h152v-1434h-119l-864 1116v-1116h-152z" />
<glyph unicode="O" horiz-adv-x="1523" d="M82 717q0 119 28.5 229.5t86 204.5t137.5 164t190 109.5t238 39.5t238 -39.5t190 -109.5t137.5 -164t86 -204.5t28.5 -229.5t-28.5 -229.5t-86 -204.5t-137.5 -164t-190 -110t-238 -40t-238 40t-190 110t-137.5 164t-86 204.5t-28.5 229.5zM248 717q0 -269 145 -432.5 t369 -163.5q147 0 264 72t184.5 208.5t67.5 315.5t-67.5 315.5t-184.5 208.5t-264 72q-224 0 -369 -163.5t-145 -432.5z" />
<glyph unicode="P" horiz-adv-x="1056" d="M172 0v1434h367q88 0 169 -27.5t146.5 -80t105 -137t39.5 -188.5q0 -105 -39.5 -189t-105 -135.5t-146.5 -78.5t-169 -27h-203v-571h-164zM336 723h166q154 0 236.5 72.5t82.5 205.5q0 132 -82.5 206.5t-236.5 74.5h-166v-559z" />
<glyph unicode="Q" horiz-adv-x="1550" d="M94 717q0 154 45.5 289t130.5 237.5t215.5 161.5t290.5 59q128 0 238 -38.5t190.5 -107t137.5 -162t85.5 -205t28.5 -234.5q0 -168 -53 -313.5t-160 -252t-254 -149.5q369 -136 572 -215l-60 -141l-921 350q-228 65 -357 261.5t-129 459.5zM260 717q0 -277 145 -436.5 t371 -159.5t370 159.5t144 436.5q0 276 -144 436t-370 160q-227 0 -371.5 -160t-144.5 -436z" />
<glyph unicode="R" horiz-adv-x="1153" d="M158 0v1434h387q88 0 169.5 -28t147 -80.5t105 -138t39.5 -190.5q0 -143 -74.5 -241.5t-198.5 -147.5l352 -608h-190l-336 578h-235v-578h-166zM324 729h184q155 0 237 69t82 199q0 133 -83 209t-236 76h-184v-553z" />
<glyph unicode="S" horiz-adv-x="1052" d="M72 135l80 129q78 -55 179.5 -99t196.5 -44q132 0 213.5 66t81.5 182q0 65 -38.5 117t-100 88t-135.5 69t-148 70.5t-135.5 82.5t-100 115t-38.5 158q0 65 16.5 122.5t54 108t93 86.5t137.5 57t184 21q82 0 176.5 -25t167.5 -61l-65 -139q-172 74 -318 74 q-118 0 -200 -55t-82 -164q0 -51 24 -93t64.5 -72.5t93.5 -57t111 -51t116 -51.5t111 -62t93.5 -77.5t64.5 -103.5t24 -135q0 -85 -31.5 -160.5t-91.5 -134t-154.5 -93t-211.5 -34.5q-193 0 -432 166z" />
<glyph unicode="T" horiz-adv-x="1159" d="M35 1282v152h1089v-152h-462v-1282h-164v1282h-463z" />
<glyph unicode="U" horiz-adv-x="1400" d="M168 467v967h166v-967q0 -154 90 -250t278 -96q97 0 169 27t114 75.5t62 109t20 134.5v967h166v-967q0 -241 -142 -369.5t-389 -128.5q-248 0 -391 128.5t-143 369.5z" />
<glyph unicode="V" horiz-adv-x="1343" d="M27 1434h186l461 -1143l471 1143h172l-590 -1434h-111z" />
<glyph unicode="W" horiz-adv-x="1853" d="M27 1434h176q304 -1027 319 -1076q159 479 361 1076h98q242 -716 365 -1074l319 1074h160l-428 -1434h-103l-368 1085l-369 -1085h-100z" />
<glyph unicode="X" horiz-adv-x="1206" d="M53 1434h197l356 -570l359 570h178q-393 -623 -447 -711l455 -723h-197q-336 530 -358 565l-356 -565h-179q251 395 445 709q-178 287 -453 725z" />
<glyph unicode="Y" horiz-adv-x="1173" d="M27 1434h184l381 -734l383 734h170l-477 -912v-522h-164v524z" />
<glyph unicode="Z" horiz-adv-x="1173" d="M72 0v61l770 1221h-717v152h975v-64l-770 -1218h753v-152h-1011z" />
<glyph unicode="[" horiz-adv-x="501" d="M102 -369v1885h359v-123h-221v-1639h221v-123h-359z" />
<glyph unicode="\" horiz-adv-x="997" d="M0 1479h127l870 -1807h-127z" />
<glyph unicode="]" horiz-adv-x="501" d="M41 -244h219v1635h-219v125h356v-1885h-356v125z" />
<glyph unicode="^" horiz-adv-x="942" d="M68 1124l374 392h58l374 -392h-141l-262 275l-262 -275h-141z" />
<glyph unicode="_" horiz-adv-x="1089" d="M0 -66h1090v-118h-1090v118z" />
<glyph unicode="`" horiz-adv-x="585" d="M115 1446h174l200 -332h-106z" />
<glyph unicode="a" horiz-adv-x="972" d="M76 236q0 94 44.5 163t129.5 110.5t194.5 63.5t255.5 29q0 70 -12 119.5t-31 76.5t-50 42.5t-59.5 19.5t-70.5 4q-62 0 -149.5 -20t-157.5 -47l-43 131q75 28 180.5 49.5t200.5 21.5q75 0 133.5 -19.5t107 -64.5t75 -127.5t26.5 -199.5v-588h-150v150 q-182 -173 -354 -173q-120 0 -195 68.5t-75 190.5zM225 246q0 -63 40 -100t120 -37q122 0 315 180v192q-475 -22 -475 -235z" />
<glyph unicode="b" horiz-adv-x="1112" d="M137 88v1346h150v-545q147 110 305 110q183 0 310.5 -138t127.5 -345q0 -132 -42 -237.5t-114 -172.5t-165.5 -102t-200.5 -35q-182 0 -371 119zM287 166q41 -27 97.5 -44.5t107.5 -17.5q37 0 67.5 2.5t72 12.5t73.5 26.5t65.5 47t56 72.5t36.5 105.5t14 141.5 q0 76 -23 138t-57.5 100.5t-79 64.5t-84.5 36.5t-76 10.5q-142 0 -270 -114v-582z" />
<glyph unicode="c" horiz-adv-x="980" d="M82 483q0 124 41.5 224t111 162.5t157 96t183.5 33.5q144 0 310 -43l-35 -133q-146 41 -264 41q-165 0 -254.5 -94t-89.5 -287q0 -181 88.5 -277.5t242.5 -96.5q119 0 293 118l68 -114q-206 -144 -377 -144q-100 0 -183.5 29.5t-150 89.5t-104 161t-37.5 234z" />
<glyph unicode="d" horiz-adv-x="1124" d="M82 485q0 101 28 187t75 145t107.5 101t125 61.5t129.5 19.5q159 0 293 -77v512h149v-1434h-149v137q-156 -168 -332 -168q-66 0 -126.5 18t-115.5 58.5t-95.5 99.5t-64.5 146.5t-24 193.5zM233 485q0 -191 85.5 -282.5t220.5 -91.5q148 0 301 170v491 q-71 49 -129.5 70.5t-141.5 21.5q-42 0 -84 -10t-88.5 -36.5t-82 -67.5t-58.5 -109.5t-23 -155.5z" />
<glyph unicode="e" horiz-adv-x="991" d="M82 463q0 105 25.5 194.5t68.5 151t99.5 105.5t118 64.5t124.5 20.5q408 0 408 -514h-690q0 -376 342 -376q117 0 272 112q10 -20 31.5 -56.5t31.5 -55.5q-44 -31 -69.5 -47.5t-75 -42.5t-102.5 -38t-111 -12q-95 0 -178.5 30t-150 88.5t-105.5 155.5t-39 220zM246 598 h532q-8 128 -65.5 196t-188.5 68q-219 0 -278 -264z" />
<glyph unicode="f" horiz-adv-x="589" d="M41 831v136h123v204q0 83 20.5 142t57 91t79.5 46t95 14q111 0 262 -43l-43 -127q-136 47 -211 47q-54 0 -81.5 -27.5t-27.5 -92.5v-254h240v-136h-240v-831h-151v831h-123z" />
<glyph unicode="g" horiz-adv-x="1011" d="M59 -172q0 78 64.5 138.5t200.5 119.5q-13 2 -83.5 11.5t-107.5 13.5v112q161 36 283 88q-160 37 -232.5 112t-72.5 212q0 159 108.5 261.5t276.5 102.5q48 0 104.5 -14t95.5 -37l258 99v-140l-155 -59q84 -84 84 -213q0 -83 -28 -150t-74.5 -113.5t-116.5 -82.5 t-144.5 -58.5t-167.5 -40.5v-10q288 -10 428 -85t140 -199q0 -141 -133.5 -233.5t-337.5 -92.5q-106 0 -185 23t-122 62t-63 82t-20 91zM201 -168q0 -62 65 -100.5t183 -38.5q153 0 239 50.5t86 137.5q0 64 -64 106.5t-216 61.5q-89 -28 -151 -60t-91 -61t-40 -51.5 t-11 -44.5zM260 635q0 -110 62 -176t174 -66q113 0 175 65t62 177q0 100 -62.5 169.5t-174.5 69.5q-109 0 -172.5 -70t-63.5 -169z" />
<glyph unicode="h" horiz-adv-x="1101" d="M137 0v1434h150v-586q151 147 319 147q74 0 139.5 -25.5t119.5 -76t86 -136t32 -196.5v-561h-152v561q0 151 -71.5 224t-181.5 73q-69 0 -157 -42t-134 -99v-717h-150z" />
<glyph unicode="i" horiz-adv-x="423" d="M106 1284q0 44 31.5 75.5t71.5 31.5q44 0 74 -31t30 -76q0 -40 -30 -70t-74 -30q-40 0 -71.5 30.5t-31.5 69.5zM137 0v967h150v-967h-150z" />
<glyph unicode="j" horiz-adv-x="430" d="M-84 -262q227 8 227 282v947h150v-947q0 -95 -23 -169t-59.5 -119.5t-87.5 -75t-101 -41.5t-106 -14v137zM115 1284q0 44 30.5 75.5t71.5 31.5q43 0 74 -31.5t31 -75.5q0 -40 -31 -70t-74 -30q-41 0 -71.5 30t-30.5 70z" />
<glyph unicode="k" horiz-adv-x="948" d="M137 0v1434h150v-945l448 478h180l-383 -398l371 -569h-176l-303 459l-137 -146v-313h-150z" />
<glyph unicode="l" horiz-adv-x="423" d="M137 0v1434h150v-1434h-150z" />
<glyph unicode="m" horiz-adv-x="1636" d="M137 0v967h150v-123q44 63 113.5 109t156.5 46q179 0 293 -163q151 163 321 163q151 0 248 -106t97 -293v-600h-150v600q0 63 -14.5 111.5t-36.5 76t-53 44.5t-58.5 22.5t-58.5 5.5q-68 0 -139 -48.5t-103 -104.5v-707h-151v600q0 63 -14.5 111.5t-36.5 76t-53 44.5 t-59 22.5t-59 5.5q-72 0 -139.5 -46t-103.5 -114v-700h-150z" />
<glyph unicode="n" horiz-adv-x="1101" d="M137 0v967h150v-119q151 147 319 147q74 0 139.5 -25.5t119.5 -76t86 -136t32 -196.5v-561h-152v561q0 151 -71.5 224t-181.5 73q-70 0 -156.5 -40.5t-134.5 -100.5v-717h-150z" />
<glyph unicode="o" horiz-adv-x="1120" d="M82 485q0 246 134 380t345 134q102 0 188.5 -33t151 -96t101 -162.5t36.5 -224.5t-36.5 -224t-101 -162t-151 -95.5t-188.5 -32.5t-189 33t-152 96t-101.5 162.5t-36.5 224.5zM231 485q0 -188 91 -287.5t239 -99.5q147 0 237.5 98.5t90.5 286.5t-90.5 287.5t-237.5 99.5 q-148 0 -239 -99t-91 -286z" />
<glyph unicode="p" horiz-adv-x="1103" d="M135 -399v1366h150v-125q25 30 68.5 63t116 63.5t142.5 30.5q60 0 117 -17t110 -55.5t93 -95t64 -141.5t24 -188q0 -108 -28 -198.5t-73.5 -151t-104.5 -103t-120.5 -61.5t-122.5 -19q-70 0 -150.5 19.5t-135.5 52.5v-440h-150zM285 174q45 -40 112.5 -60t137.5 -20 q40 0 78.5 8t86.5 34.5t83.5 68.5t60 119t24.5 178q0 84 -20.5 149t-51.5 103t-74 62.5t-82.5 33t-82.5 8.5q-142 0 -272 -141v-543z" />
<glyph unicode="q" horiz-adv-x="1075" d="M82 481q0 103 32.5 189.5t87 146t126 101.5t148 61.5t155.5 19.5q81 0 157 -28l150 92v-1462h-150v469q-113 -101 -264 -101q-84 0 -162.5 33t-141.5 95.5t-100.5 162t-37.5 221.5zM233 483q0 -92 24.5 -164t59 -112t79 -65.5t78.5 -33.5t63 -8q83 0 140.5 25.5 t110.5 75.5v628q-24 16 -69 26.5t-76 10.5q-54 0 -107.5 -10.5t-109 -38t-97.5 -69t-69 -110.5t-27 -155z" />
<glyph unicode="r" horiz-adv-x="698" d="M137 0v967h150v-303q40 148 122.5 223.5t231.5 111.5l37 -131q-207 -63 -299 -182.5t-92 -300.5v-385h-150z" />
<glyph unicode="s" horiz-adv-x="874" d="M76 104l63 119q163 -119 297 -119q213 0 213 152q0 48 -29 82.5t-75 55t-102 37.5t-112 38t-102 49.5t-75 79t-29 119.5q0 128 88 206t244 78q152 0 317 -67l-47 -127q-158 63 -295 63q-82 0 -123 -41t-41 -102q0 -44 29.5 -75t76 -49.5t103.5 -35t113.5 -37.5t103 -49.5 t76 -79t29.5 -118.5q0 -76 -27 -135t-66 -91.5t-90.5 -53.5t-93.5 -27.5t-82 -6.5q-187 0 -364 135z" />
<glyph unicode="t" horiz-adv-x="716" d="M41 831v21l303 358h10v-243h316v-136h-316v-563q0 -73 23 -103t72 -30q58 0 176 62q8 -17 24.5 -58.5t26.5 -62.5q-57 -28 -93.5 -43.5t-88.5 -29t-99 -13.5q-59 0 -98.5 24t-58.5 67.5t-26 88t-7 102.5v559h-164z" />
<glyph unicode="u" horiz-adv-x="1052" d="M119 401v566h149v-566q0 -84 15.5 -139.5t48 -84.5t72 -39.5t96.5 -10.5q133 0 266 164v676h149v-967h-149v156q-65 -74 -148.5 -126.5t-171.5 -52.5q-161 0 -244 98.5t-83 325.5z" />
<glyph unicode="v" horiz-adv-x="997" d="M27 967h170l311 -746l317 746h152l-424 -967h-109z" />
<glyph unicode="w" horiz-adv-x="1406" d="M27 967h157q34 -94 119 -327.5t131 -358.5l223 686h103q150 -414 244 -682l219 682h155l-325 -967h-99q-37 98 -78.5 209.5t-91 246.5t-77.5 210q-192 -559 -230 -666h-100z" />
<glyph unicode="x" horiz-adv-x="919" d="M41 0l332 475l-328 492h174l244 -361l252 361h162l-334 -480l329 -487h-182l-239 356l-248 -356h-162z" />
<glyph unicode="y" horiz-adv-x="1005" d="M27 967h161q48 -114 155.5 -370.5t166.5 -393.5l317 764h152l-578 -1366h-151l176 413z" />
<glyph unicode="z" horiz-adv-x="956" d="M82 0v61l545 770h-529v136h766v-60l-547 -772h533v-135h-768z" />
<glyph unicode="{" horiz-adv-x="655" d="M90 520v107q26 3 45 7.5t47.5 21.5t46.5 43.5t31.5 76.5t13.5 117v240q0 209 83.5 297t256.5 88v-117q-55 0 -90.5 -8.5t-62 -32.5t-38 -66.5t-11.5 -109.5v-203q0 -69 -4 -116.5t-16 -96.5t-35 -82.5t-61 -62.5t-93 -50q55 -21 93 -50t61 -62.5t35 -82t16 -96t4 -116.5 v-203q0 -67 11.5 -109.5t38 -66.5t62 -32.5t90.5 -8.5v-117q-173 0 -256.5 88t-83.5 297v240q0 67 -13.5 117t-31.5 76.5t-46.5 43.5t-47.5 21.5t-45 7.5z" />
<glyph unicode="|" horiz-adv-x="321" d="M102 -399v1915h117v-1915h-117z" />
<glyph unicode="}" horiz-adv-x="655" d="M41 -254q111 0 157 44t46 173v203q0 87 7 143.5t28 110.5t64 90.5t112 62.5q-69 26 -112 62.5t-64 91t-28 111t-7 143.5v203q0 129 -46 173t-157 44v117q174 0 258 -88t84 -297v-240q0 -67 13.5 -117t31.5 -76.5t46.5 -43.5t47.5 -21.5t45 -7.5v-107q-26 -3 -45 -7.5 t-47.5 -21.5t-46.5 -43.5t-31.5 -76.5t-13.5 -117v-240q0 -209 -84 -297t-258 -88v117z" />
<glyph unicode="~" horiz-adv-x="1333" d="M92 475v115q115 84 187.5 116.5t160.5 32.5q54 0 116.5 -22.5t111 -49t111 -49t116.5 -22.5q86 0 148 26t198 119v-114q-67 -44 -90.5 -59t-66 -39.5t-65.5 -31.5t-56 -13.5t-70 -6.5q-54 0 -117 22.5t-111.5 49.5t-111 49.5t-115.5 22.5q-85 0 -147.5 -26.5 t-198.5 -119.5z" />
<glyph unicode="&#xa2;" horiz-adv-x="980" d="M82 483q0 123 40.5 222t109 162t155 96.5t182.5 35.5l21 140h112l-22 -148q58 -5 203 -35l-35 -133q-127 31 -186 37l-111 -751h22q114 0 291 116l70 -112q-200 -142 -404 -142l-20 -143h-113l23 158q-155 36 -246.5 159.5t-91.5 337.5zM240 483q0 -138 53 -229t147 -125 l109 733q-148 -8 -228.5 -103t-80.5 -276z" />
<glyph unicode="&#xa3;" horiz-adv-x="1067" d="M96 0l115 594h-111v139h138l53 273q17 86 39 152.5t56 125.5t79 97.5t108 60.5t142 22q119 0 307 -32l-31 -152q-217 39 -323 39q-36 0 -65.5 -15t-58.5 -52.5t-54 -107.5t-46 -173l-49 -238h379v-139h-405l-88 -434q122 53 276 53q63 0 145 -14l302 -52l-31 -172 l-393 68q-86 12 -156 12q-127 0 -225 -55h-103z" />
<glyph unicode="&#xa5;" horiz-adv-x="1173" d="M27 1434h184l381 -732l385 732h170l-389 -740h336v-119h-398l-28 -51v-121h426v-116h-426v-287h-164v287h-424v116h424v123l-27 49h-397v119h336z" />
<glyph unicode="&#xa8;" horiz-adv-x="991" d="M248 1268q0 44 31 75t71 31q44 0 74.5 -31t30.5 -75q0 -42 -30.5 -71.5t-74.5 -29.5q-40 0 -71 30t-31 71zM637 1268q0 44 30 75t72 31q44 0 74.5 -31t30.5 -75q0 -42 -30.5 -71.5t-74.5 -29.5q-41 0 -71.5 30t-30.5 71z" />
<glyph unicode="&#xa9;" horiz-adv-x="1685" d="M102 719q0 202 99.5 372.5t270 269.5t372.5 99q150 0 287 -58.5t236 -157.5t157.5 -236.5t58.5 -288.5q0 -150 -58.5 -287t-157.5 -236t-236 -157.5t-287 -58.5q-151 0 -288.5 58.5t-237 157.5t-158 236t-58.5 287zM188 719q0 -132 52.5 -252.5t140.5 -208.5t209 -140 t254 -52q176 0 326.5 88t238.5 238.5t88 326.5q0 177 -88 328t-238.5 239t-326.5 88q-177 0 -328 -88t-239.5 -239t-88.5 -328zM412 719q0 135 48.5 238t151 165t246.5 62q145 0 270 -56l-41 -98q-71 28 -118 39.5t-111 11.5q-141 0 -234.5 -94t-93.5 -268q0 -93 26 -164 t71.5 -113t103.5 -63t127 -21q112 0 268 105l50 -88q-6 -5 -17.5 -13t-46.5 -28.5t-70.5 -36t-86.5 -28.5t-97 -13q-217 0 -331.5 125.5t-114.5 337.5z" />
<glyph unicode="&#xab;" horiz-adv-x="825" d="M102 471l441 473l73 -65l-331 -408l331 -408l-73 -65zM442 471l287 307l64 -61l-205 -246l205 -246l-64 -61z" />
<glyph unicode="&#xad;" horiz-adv-x="593" d="M61 461v119h471v-119h-471z" />
<glyph unicode="&#xae;" horiz-adv-x="978" d="M82 1065q0 169 119 288.5t288 119.5t288.5 -119.5t119.5 -288.5t-119.5 -288.5t-288.5 -119.5t-288 119.5t-119 288.5zM145 1065q0 -145 99.5 -244.5t244.5 -99.5t245 99.5t100 244.5t-100 244.5t-245 99.5t-244.5 -99.5t-99.5 -244.5zM362 819v506h132q73 0 124.5 -39.5 t51.5 -114.5q0 -53 -28 -89t-73 -52l131 -211h-79l-123 199h-66v-199h-70zM432 1079h53q55 0 83 24t28 68q0 93 -111 93h-53v-185z" />
<glyph unicode="&#xb4;" horiz-adv-x="724" d="M260 1114l201 332h174l-268 -332h-107z" />
<glyph unicode="&#xb8;" horiz-adv-x="481" d="M86 -332q42 -10 92 -10q51 0 78 20t27 50q0 61 -97 73l-57 6l72 193h121l-56 -129q66 -11 106 -46.5t40 -84.5q0 -67 -59.5 -113.5t-151.5 -46.5q-60 0 -115 14v74z" />
<glyph unicode="&#xbb;" horiz-adv-x="825" d="M33 223l205 248q-35 41 -205 246l63 61l287 -307l-287 -307q-18 14 -63 59zM209 61l332 410l-332 408l74 65l440 -473l-440 -473z" />
<glyph unicode="&#x2c6;" horiz-adv-x="888" d="M115 1114l235 332h174l236 -332h-107l-215 225l-215 -225h-108z" />
<glyph unicode="&#x2da;" horiz-adv-x="534" d="M102 1274q0 69 48.5 116.5t117.5 47.5t116.5 -47.5t47.5 -116.5t-47.5 -117.5t-116.5 -48.5t-117.5 48.5t-48.5 117.5zM180 1274q0 -35 24.5 -59.5t61.5 -24.5q35 0 58.5 24.5t23.5 59.5q0 37 -23.5 60.5t-58.5 23.5q-37 0 -61.5 -23.5t-24.5 -60.5z" />
<glyph unicode="&#x2dc;" horiz-adv-x="892" d="M109 1266q42 64 90 96.5t120 32.5q43 0 80.5 -16t60 -35.5t53 -35.5t62.5 -16q55 0 90.5 24.5t79.5 88.5l39 -109q-42 -64 -90.5 -96.5t-120.5 -32.5q-43 0 -80.5 16t-60 35.5t-53 35.5t-62.5 16q-55 0 -90.5 -24.5t-79.5 -88.5z" />
<glyph unicode="&#x401;" horiz-adv-x="989" d="M172 0v1434h709v-152h-545v-465h495v-151h-495v-514h567v-152h-731zM254 1645q0 40 29 69t67 29q41 0 70 -29t29 -69q0 -39 -29 -68t-70 -29q-38 0 -67 29.5t-29 67.5zM623 1645q0 40 29 69t67 29q41 0 69.5 -29t28.5 -69q0 -39 -28.5 -68t-69.5 -29q-38 0 -67 29.5 t-29 67.5z" />
<glyph unicode="&#x402;" horiz-adv-x="1429" d="M35 1282v152h1145v-152h-490v-471q5 5 14.5 12t40.5 26.5t62.5 34t79 26.5t92.5 12q70 0 131 -22.5t112 -68.5t81 -126t30 -185v-416q0 -501 -479 -501v151q58 0 100 6.5t84.5 28t69 58.5t43 102t16.5 155v402q0 127 -65 192.5t-172 65.5q-114 0 -240 -100v-664h-166 v1282h-489z" />
<glyph unicode="&#x403;" horiz-adv-x="907" d="M170 0v1434h704v-152h-538v-1282h-166zM328 1581l200 332h174l-268 -332h-106z" />
<glyph unicode="&#x404;" horiz-adv-x="1302" d="M82 717q0 125 27 236.5t83.5 205.5t138 161.5t195.5 105.5t250 38q234 0 430 -84l-59 -147q-112 42 -190.5 61t-180.5 19q-211 0 -347.5 -134.5t-162.5 -361.5h703v-151h-707q13 -259 150.5 -402t363.5 -143q105 0 205 42.5t209 117.5q38 -65 72 -129q-93 -65 -158 -97 q-170 -86 -328 -86q-171 0 -304 55.5t-218 155.5t-128.5 236t-43.5 301z" />
<glyph unicode="&#x405;" horiz-adv-x="1052" d="M72 135l80 129q78 -55 179.5 -99t196.5 -44q132 0 213.5 66t81.5 182q0 65 -38.5 117t-100 88t-135.5 69t-148 70.5t-135.5 82.5t-100 115t-38.5 158q0 65 16.5 122.5t54 108t93 86.5t137.5 57t184 21q82 0 176.5 -25.5t167.5 -60.5l-65 -139q-172 74 -318 74 q-118 0 -200 -55t-82 -164q0 -51 24 -93t64.5 -72.5t93.5 -57t111 -51t116 -51.5t111 -62t93.5 -77.5t64.5 -103.5t24 -135q0 -85 -31.5 -160.5t-91.5 -134t-154.5 -93t-211.5 -34.5q-193 0 -432 166z" />
<glyph unicode="&#x406;" horiz-adv-x="493" d="M172 0v1434h164v-1434h-164z" />
<glyph unicode="&#x407;" horiz-adv-x="520" d="M53 1720q0 42 27 72.5t63 30.5q37 0 63.5 -30t26.5 -73q0 -40 -26.5 -69t-63.5 -29q-36 0 -63 29.5t-27 68.5zM178 0v1434h166v-1434h-166zM291 1720q0 42 27 72.5t63 30.5q38 0 64 -30t26 -73q0 -40 -26 -69t-64 -29q-36 0 -63 29.5t-27 68.5z" />
<glyph unicode="&#x408;" horiz-adv-x="526" d="M-96 -246q51 1 88.5 7t80 26t69.5 55t45 97t18 147v1348h164v-1348q0 -238 -111.5 -358.5t-353.5 -124.5v151z" />
<glyph unicode="&#x409;" horiz-adv-x="1845" d="M29 100q53 10 94 33t74 67t57.5 98t43 140.5t31 177.5t22 225.5t15.5 269t11 323.5h776v-568h164q93 0 176.5 -26t151.5 -77.5t108.5 -136.5t40.5 -194t-40.5 -194t-108.5 -135.5t-151.5 -76.5t-176.5 -26h-330v1282h-459q-8 -251 -20.5 -430.5t-35.5 -327.5t-55 -243 t-81 -164.5t-111.5 -106t-148.5 -53.5zM1153 152h147q155 0 237.5 76.5t82.5 203.5q0 128 -82.5 205.5t-237.5 77.5h-147v-563z" />
<glyph unicode="&#x40a;" horiz-adv-x="1906" d="M172 0v1434h164v-594h715v594h166v-592h163q94 0 176 -22.5t150.5 -69t108.5 -128t40 -190.5t-40 -194t-108 -135.5t-151 -76.5t-176 -26h-329v688h-715v-688h-164zM1217 152h147q153 0 235 77.5t82 202.5q0 121 -80.5 189.5t-236.5 68.5h-147v-538z" />
<glyph unicode="&#x40b;" horiz-adv-x="1429" d="M33 1282v152h1147v-152h-492v-471q5 5 15 12t41 26.5t63 34t79.5 26.5t92.5 12q70 0 131 -23t112 -69.5t81 -126.5t30 -185v-518h-166v504q0 133 -64.5 195.5t-172.5 62.5q-110 0 -242 -98v-664h-164v1282h-491z" />
<glyph unicode="&#x40c;" horiz-adv-x="1214" d="M172 0v1434h164v-617h174l436 617h201l-488 -684l498 -750h-207l-428 666h-186v-666h-164zM481 1581l201 332h174l-268 -332h-107z" />
<glyph unicode="&#x40e;" horiz-adv-x="1230" d="M27 1434h182l446 -865l392 865h163l-647 -1434h-164l170 379zM162 1669l53 129q228 -98 397 -98q168 0 400 98l53 -129q-79 -30 -124.5 -45t-141.5 -34t-187 -19t-187 19t-141 34t-122 45z" />
<glyph unicode="&#x40f;" horiz-adv-x="1429" d="M170 0v1434h166v-1282h756v1282h165v-1434h-446l-31 -362h-131l-31 362h-448z" />
<glyph unicode="&#x410;" horiz-adv-x="1249" d="M27 0l493 1434h209l494 -1434h-176l-138 401h-581l-140 -401h-161zM381 553h475l-235 692z" />
<glyph unicode="&#x411;" horiz-adv-x="1101" d="M172 0v1434h735v-152h-571v-426h215q83 0 162 -23.5t148.5 -71t112 -130.5t42.5 -191q0 -109 -38.5 -195t-104.5 -138.5t-148 -79.5t-174 -27h-379zM336 152h182q158 0 241 75.5t83 212.5q0 125 -83.5 195t-240.5 70h-182v-553z" />
<glyph unicode="&#x412;" horiz-adv-x="1107" d="M172 0v1434h420q73 0 140 -20t122.5 -60.5t89 -109t33.5 -157.5q0 -118 -62.5 -210t-179.5 -129q129 -29 208 -121.5t79 -229.5q0 -99 -37.5 -177t-99.5 -125t-137 -71t-156 -24h-420zM336 152h223q138 0 217.5 62t79.5 189t-80.5 195t-216.5 68h-223v-514zM336 817h207 q130 0 198 60t68 178t-67 172.5t-199 54.5h-207v-465z" />
<glyph unicode="&#x413;" horiz-adv-x="907" d="M170 0v1434h704v-152h-538v-1282h-166z" />
<glyph unicode="&#x414;" horiz-adv-x="1458" d="M57 152h127q47 79 83 157.5t61.5 149.5t43.5 162t29.5 165.5t19.5 192t12 208.5t9 247h785v-1282h149v-514h-131l-41 362h-975l-41 -362h-131v514zM350 152h711v1130h-471q-12 -422 -71.5 -696.5t-168.5 -433.5z" />
<glyph unicode="&#x415;" horiz-adv-x="989" d="M172 0v1434h709v-152h-545v-465h495v-151h-495v-514h567v-152h-731z" />
<glyph unicode="&#x416;" horiz-adv-x="1849" d="M63 0l469 750l-464 684h188l416 -617h170v617h164v-617h170l415 617h189l-465 -684l469 -750h-205l-401 666h-172v-666h-164v666h-172l-402 -666h-205z" />
<glyph unicode="&#x417;" horiz-adv-x="1054" d="M47 156l94 120q96 -79 180.5 -117t184.5 -38q126 0 208.5 71t82.5 195q0 133 -86 206t-246 73h-125v151h125q152 0 237.5 69.5t85.5 198.5q0 108 -67 168t-182 60q-159 0 -338 -78l-49 147q200 82 395 82q179 0 290 -93.5t111 -270.5q0 -129 -79 -225t-193 -134 q128 -27 210.5 -121.5t82.5 -230.5q0 -130 -63 -227t-165 -145t-227 -48q-259 0 -467 187z" />
<glyph unicode="&#x418;" horiz-adv-x="1452" d="M172 0v1434h164v-1182l762 1182h184v-1434h-166v1182l-762 -1182h-182z" />
<glyph unicode="&#x419;" horiz-adv-x="1452" d="M172 0v1434h164v-1182l762 1182h184v-1434h-166v1182l-762 -1182h-182zM274 1669l56 129q224 -98 397 -98q168 0 397 98l54 -129q-74 -28 -122.5 -44.5t-143.5 -35t-185 -18.5q-91 0 -187.5 19t-141 34t-124.5 45z" />
<glyph unicode="&#x41a;" horiz-adv-x="1214" d="M172 0v1434h164v-617h174l436 617h201l-488 -684l498 -750h-207l-428 666h-186v-666h-164z" />
<glyph unicode="&#x41b;" horiz-adv-x="1380" d="M0 100q55 7 95 22t77 46.5t62 76.5t47.5 119.5t36.5 168t26 229.5t19 296.5t12 375.5h833v-1434h-166v1282h-516q-6 -211 -15 -374t-25 -294.5t-35.5 -225.5t-49.5 -165.5t-62 -116.5t-79.5 -76t-96 -46.5t-116.5 -26.5z" />
<glyph unicode="&#x41c;" horiz-adv-x="1794" d="M150 0l77 1434h254l416 -1158l442 1158h242l61 -1434h-165l-50 1260l-469 -1260h-135l-454 1260l-64 -1260h-155z" />
<glyph unicode="&#x41d;" horiz-adv-x="1429" d="M172 0v1434h164v-617h758v617h163v-1434h-163v666h-758v-666h-164z" />
<glyph unicode="&#x41e;" horiz-adv-x="1523" d="M82 717q0 119 28.5 229.5t86 204.5t137.5 164t190 109.5t238 39.5t238 -39.5t190 -109.5t137.5 -164t86 -204.5t28.5 -229.5t-28.5 -229.5t-86 -204.5t-137.5 -164t-190 -110t-238 -40t-238 40t-190 110t-137.5 164t-86 204.5t-28.5 229.5zM248 717q0 -269 145 -432.5 t369 -163.5q147 0 264 72t184.5 208.5t67.5 315.5t-67.5 315.5t-184.5 208.5t-264 72q-224 0 -369 -163.5t-145 -432.5z" />
<glyph unicode="&#x41f;" horiz-adv-x="1429" d="M172 0v1434h1085v-1434h-163v1282h-758v-1282h-164z" />
<glyph unicode="&#x420;" horiz-adv-x="1056" d="M172 0v1434h367q88 0 169 -27.5t146.5 -80t105 -137t39.5 -188.5q0 -105 -39.5 -189t-105 -135.5t-146.5 -78.5t-169 -27h-203v-571h-164zM336 723h166q154 0 236.5 72.5t82.5 205.5q0 132 -82.5 206.5t-236.5 74.5h-166v-559z" />
<glyph unicode="&#x421;" horiz-adv-x="1304" d="M82 717q0 125 27 236.5t83.5 205.5t138 161.5t195.5 105.5t250 38q235 0 424 -84q-53 -131 -61 -147q-107 43 -183.5 61.5t-179.5 18.5q-233 0 -374.5 -163t-141.5 -433q0 -283 139.5 -439.5t376.5 -156.5q104 0 198.5 42t209.5 118q11 -22 35.5 -65t35.5 -64 q-27 -20 -59.5 -41.5t-100.5 -58.5t-152.5 -60t-166.5 -23q-171 0 -304 55.5t-218 155.5t-128.5 236t-43.5 301z" />
<glyph unicode="&#x422;" horiz-adv-x="1159" d="M35 1282v152h1089v-152h-462v-1282h-164v1282h-463z" />
<glyph unicode="&#x423;" horiz-adv-x="1230" d="M27 1434h182l446 -865l392 865h163l-647 -1434h-164l170 379z" />
<glyph unicode="&#x424;" horiz-adv-x="1556" d="M82 774q0 277 164.5 422t447.5 145v185h166v-185q139 0 251 -35.5t193.5 -105t126 -178t44.5 -248.5q0 -278 -165.5 -422.5t-449.5 -144.5v-207h-166v207q-284 0 -448 144.5t-164 422.5zM246 774q0 -118 32.5 -200.5t94 -128.5t140 -66.5t181.5 -20.5v832 q-103 0 -181.5 -20.5t-140 -66.5t-94 -128.5t-32.5 -200.5zM860 358q82 0 148 12t123.5 41.5t96 76.5t60 119t21.5 167t-21.5 167t-60 119t-96 76.5t-123.5 41.5t-148 12v-832z" />
<glyph unicode="&#x425;" horiz-adv-x="1206" d="M53 1434h197l356 -570l359 570h178q-393 -623 -447 -711l455 -723h-197q-336 530 -358 565l-356 -565h-179q251 395 445 709q-178 287 -453 725z" />
<glyph unicode="&#x426;" horiz-adv-x="1490" d="M172 0v1434h164v-1282h758v1282h163v-1282h152v-514h-131l-41 362h-1065z" />
<glyph unicode="&#x427;" horiz-adv-x="1200" d="M88 924v510h166v-510q0 -122 62.5 -182t177.5 -60q70 0 182.5 22.5t187.5 59.5v670h166v-1434h-166v616q-195 -86 -397 -86q-75 0 -140 20.5t-120 64.5t-87 123t-32 186z" />
<glyph unicode="&#x428;" horiz-adv-x="1970" d="M172 0v1434h164v-1282h567v1282h166v-1282h565v1282h166v-1434h-1628z" />
<glyph unicode="&#x429;" horiz-adv-x="2031" d="M170 0v1434h166v-1282h565v1282h166v-1282h567v1282h164v-1282h152v-514h-131l-41 362h-1608z" />
<glyph unicode="&#x42a;" horiz-adv-x="1204" d="M6 1282v152h494v-570h176q93 0 176.5 -26t151.5 -76.5t108.5 -135.5t40.5 -194t-40.5 -194t-108.5 -135.5t-151.5 -76.5t-176.5 -26h-342v1282h-328zM500 152h159q155 0 237.5 76.5t82.5 203.5t-82.5 204t-237.5 77h-159v-561z" />
<glyph unicode="&#x42b;" horiz-adv-x="1488" d="M172 0v1434h164v-568h178q93 0 176 -26t151 -77.5t108 -136.5t40 -194t-40 -194t-108 -135.5t-151 -76.5t-176 -26h-342zM336 152h162q155 0 237 76.5t82 203.5q0 128 -82 205.5t-237 77.5h-162v-563zM1153 0v1434h164v-1434h-164z" />
<glyph unicode="&#x42c;" horiz-adv-x="1040" d="M172 0v1434h164v-568h178q93 0 176 -26t151 -77.5t108 -136.5t40 -194t-40 -194t-108 -135.5t-151 -76.5t-176 -26h-342zM336 152h162q155 0 237 76.5t82 203.5q0 128 -82 205.5t-237 77.5h-162v-563z" />
<glyph unicode="&#x42d;" horiz-adv-x="1308" d="M39 152q37 64 72 129q106 -76 204 -118t203 -42q227 0 370 143.5t156 401.5h-700v151h696q-29 236 -170 363t-374 127q-99 0 -171.5 -17t-166.5 -55l-60 145q196 84 420 84q142 0 259 -37.5t199.5 -104.5t139.5 -160.5t84 -205.5t27 -239q0 -165 -45.5 -301.5 t-133 -236.5t-223 -155t-307.5 -55q-85 0 -170.5 23t-149.5 58t-101.5 59.5t-57.5 42.5z" />
<glyph unicode="&#x42e;" horiz-adv-x="1988" d="M172 0v1434h164v-617h256q13 134 61.5 249.5t128 205t199 141t264.5 51.5q127 0 235.5 -39.5t186 -109.5t132.5 -164.5t81.5 -204.5t26.5 -229t-26.5 -229t-81.5 -205t-132.5 -164.5t-186 -109.5t-235.5 -40q-152 0 -275.5 56t-203.5 152.5t-125.5 221t-52.5 267.5h-252 v-666h-164zM752 717q0 -271 136.5 -433.5t356.5 -162.5q223 0 359.5 162t136.5 434t-136.5 434t-359.5 162q-221 0 -357 -162t-136 -434z" />
<glyph unicode="&#x42f;" horiz-adv-x="1167" d="M55 0l348 608q-123 49 -195.5 147t-72.5 242q0 105 39.5 190.5t105 138t147 80.5t169.5 28h399v-1434h-164v578h-251l-334 -578h-191zM311 997q0 -130 82.5 -199t239.5 -69h198v553h-198q-155 0 -238.5 -76t-83.5 -209z" />
<glyph unicode="&#x430;" horiz-adv-x="987" d="M76 236q0 94 44.5 163t129.5 110.5t194.5 63.5t255.5 29q0 70 -12 119.5t-31 76.5t-50 42.5t-59.5 19.5t-70.5 4q-62 0 -149.5 -20t-157.5 -47l-43 131q75 28 180.5 49.5t200.5 21.5q75 0 133.5 -19.5t107 -64.5t75 -127.5t26.5 -199.5v-588h-150v150 q-182 -173 -354 -173q-120 0 -195 68.5t-75 190.5zM225 246q0 -63 40 -100t120 -37q122 0 315 180v192q-475 -22 -475 -235z" />
<glyph unicode="&#x431;" horiz-adv-x="1120" d="M82 629q0 116 10.5 207.5t40.5 165t59.5 126t93 97.5t113.5 73t148.5 58.5t171 49t205.5 48.5l24 -137l-452 -125q-125 -36 -189.5 -140.5t-70.5 -260.5q179 167 387 167q81 0 155 -30.5t132.5 -87.5t93 -145.5t34.5 -196.5q0 -119 -38.5 -219.5t-104 -167.5t-151 -104.5 t-179.5 -37.5q-252 0 -367.5 166t-115.5 494zM236 571q0 -135 22 -228t67 -144.5t102.5 -73t137.5 -21.5q103 0 177.5 52.5t108.5 132.5t34 176q0 156 -81 255t-237 99q-84 0 -176.5 -47t-154.5 -117v-84z" />
<glyph unicode="&#x432;" horiz-adv-x="911" d="M137 0v967h365q60 0 111.5 -11t98.5 -36.5t74 -75t27 -119.5q0 -187 -195 -223q102 -20 156.5 -75t54.5 -163q0 -70 -26.5 -122.5t-72.5 -82.5t-101.5 -44.5t-120.5 -14.5h-371zM287 127h219q83 0 128.5 41t45.5 113q0 71 -48.5 110t-131.5 39h-213v-303zM287 551h198 q87 0 132 39t45 104q0 69 -39.5 107.5t-137.5 38.5h-198v-289z" />
<glyph unicode="&#x433;" horiz-adv-x="763" d="M143 0v967h594v-136h-444v-831h-150z" />
<glyph unicode="&#x434;" horiz-adv-x="1095" d="M27 135h84q101 112 139 295t51 537h614v-832h132v-407h-107l-31 272h-745l-31 -272h-106v407zM264 135h502v696h-328q-21 -281 -58 -448t-116 -248z" />
<glyph unicode="&#x435;" horiz-adv-x="991" d="M82 463q0 105 25.5 194.5t68.5 151t99.5 105.5t118 64.5t124.5 20.5q408 0 408 -514h-690q0 -376 342 -376q117 0 272 112q10 -20 31.5 -56.5t31.5 -55.5q-44 -31 -69.5 -47.5t-75 -42.5t-102.5 -38t-111 -12q-95 0 -178.5 30t-150 88.5t-105.5 155.5t-39 220zM246 598 h532q-8 128 -65.5 196t-188.5 68q-219 0 -278 -264z" />
<glyph unicode="&#x436;" horiz-adv-x="1396" d="M33 0q40 61 156.5 238t179.5 274l-322 455h164q27 -38 128 -181.5t157 -220.5h127v402h149v-402h125q26 36 128 180t157 222h166q-42 -58 -152.5 -214.5t-171.5 -240.5l336 -512h-182l-283 432h-123v-432h-149v432h-125q-197 -304 -283 -432h-182z" />
<glyph unicode="&#x437;" horiz-adv-x="862" d="M55 109l70 112q163 -119 293 -119q213 0 213 164q0 72 -59 122t-154 50h-127v121h127q93 0 145.5 48t52.5 120q0 55 -46 96t-130 41q-161 0 -272 -51l-37 129q160 57 328 57q59 0 112 -13.5t97.5 -41.5t71 -76.5t26.5 -111.5q0 -59 -22 -109.5t-77 -90.5t-137 -52 q133 -14 191.5 -82t58.5 -166q0 -91 -52.5 -158t-134 -98t-179.5 -31q-111 0 -190.5 35.5t-168.5 104.5z" />
<glyph unicode="&#x438;" horiz-adv-x="1101" d="M135 0v967h150v-756q64 94 242.5 353.5t275.5 402.5h162v-967h-150v758l-520 -758h-160z" />
<glyph unicode="&#x439;" horiz-adv-x="1101" d="M135 0v967h150v-756q64 94 242.5 353.5t275.5 402.5h162v-967h-150v758l-520 -758h-160zM180 1227l56 121q88 -46 159 -67t156 -21q83 0 154.5 21t158.5 67l56 -121q-96 -42 -181.5 -65t-187.5 -23q-103 0 -189 23t-182 65z" />
<glyph unicode="&#x43a;" horiz-adv-x="925" d="M137 0v967h150v-400h141l287 400h168l-322 -447l330 -520h-180l-269 432h-155v-432h-150z" />
<glyph unicode="&#x43b;" horiz-adv-x="1040" d="M20 102q46 7 81.5 28.5t62 55.5t45.5 90t31.5 119t20.5 156t12 188.5t6 227.5h624v-967h-149v831h-340q-5 -102 -9.5 -175.5t-11.5 -152.5t-17 -134t-24 -112t-32.5 -95t-43.5 -73.5t-57 -58t-71.5 -38.5t-88.5 -23z" />
<glyph unicode="&#x43c;" horiz-adv-x="1310" d="M119 0l33 967h217l284 -762q49 127 289 762h215l33 -967h-146q-20 516 -28 795l-301 -795h-137q-56 152 -163.5 431.5t-138.5 361.5l-24 -793h-133z" />
<glyph unicode="&#x43d;" horiz-adv-x="1091" d="M135 0v967h150v-402h520v402h149v-967h-149v432h-520v-432h-150z" />
<glyph unicode="&#x43e;" horiz-adv-x="1120" d="M82 485q0 246 134 380t345 134q102 0 188.5 -33t151 -96t101 -162.5t36.5 -224.5t-36.5 -224t-101 -162t-151 -95.5t-188.5 -32.5t-189 33t-152 96t-101.5 162.5t-36.5 224.5zM231 485q0 -188 91 -287.5t239 -99.5q147 0 237.5 98.5t90.5 286.5t-90.5 287.5t-237.5 99.5 q-148 0 -239 -99t-91 -286z" />
<glyph unicode="&#x43f;" horiz-adv-x="1091" d="M135 0v967h819v-967h-149v831h-520v-831h-150z" />
<glyph unicode="&#x440;" horiz-adv-x="1103" d="M135 -399v1366h150v-125q25 30 68.5 63t116 63.5t142.5 30.5q60 0 117 -17t110 -55.5t93 -95t64 -141.5t24 -188q0 -108 -28 -198.5t-73.5 -151t-104.5 -103t-120.5 -61.5t-122.5 -19q-70 0 -150.5 19.5t-135.5 52.5v-440h-150zM285 174q45 -40 112.5 -60t137.5 -20 q40 0 78.5 8t86.5 34.5t83.5 68.5t60 119t24.5 178q0 84 -20.5 149t-51.5 103t-74 62.5t-82.5 33t-82.5 8.5q-142 0 -272 -141v-543z" />
<glyph unicode="&#x441;" horiz-adv-x="980" d="M82 483q0 124 41.5 224t111 162.5t157 96t183.5 33.5q144 0 310 -43l-35 -133q-146 41 -264 41q-165 0 -254.5 -94t-89.5 -287q0 -181 88.5 -277.5t242.5 -96.5q119 0 293 118l68 -114q-206 -144 -377 -144q-100 0 -183.5 29.5t-150 89.5t-104 161t-37.5 234z" />
<glyph unicode="&#x442;" horiz-adv-x="856" d="M27 831v136h800v-136h-323v-831h-152v831h-325z" />
<glyph unicode="&#x443;" horiz-adv-x="1005" d="M27 967h161l320 -762l319 762h152l-578 -1366h-151l176 413z" />
<glyph unicode="&#x444;" horiz-adv-x="1349" d="M82 489q0 230 133.5 361t382.5 131v332h150v-332q250 0 384 -131.5t134 -360.5q0 -231 -134.5 -366t-383.5 -135v-387h-150v387q-248 0 -382 135t-134 366zM231 489q0 -383 367 -383v754q-193 0 -280 -94.5t-87 -276.5zM748 106q368 0 368 383q0 182 -87 276.5t-281 94.5 v-754z" />
<glyph unicode="&#x445;" horiz-adv-x="919" d="M41 0l332 475l-328 492h174l244 -361l252 361h162l-334 -480l329 -487h-182l-239 356l-248 -356h-162z" />
<glyph unicode="&#x446;" horiz-adv-x="1132" d="M135 0v967h150v-834h520v834h149v-834h131v-405h-108l-31 272h-811z" />
<glyph unicode="&#x447;" horiz-adv-x="917" d="M51 633v334h150v-312q0 -97 41 -141.5t133 -44.5q132 0 258 57v441h149v-967h-149v408q-57 -28 -144 -49t-159 -21q-134 0 -206.5 78.5t-72.5 216.5z" />
<glyph unicode="&#x448;" horiz-adv-x="1468" d="M137 0v967h150v-832h372v832h150v-832h373v832h149v-967h-1194z" />
<glyph unicode="&#x449;" horiz-adv-x="1509" d="M135 0v967h152v-834h372v834h150v-834h371v834h149v-834h133v-405h-108l-31 272h-1188z" />
<glyph unicode="&#x44a;" horiz-adv-x="970" d="M6 831v136h393v-355h195q143 0 235.5 -81t92.5 -224t-92.5 -225t-235.5 -82h-346v831h-242zM399 127h179q196 0 196 180q0 84 -53 131t-143 47h-179v-358z" />
<glyph unicode="&#x44b;" horiz-adv-x="1224" d="M137 0v967h150v-355h194q143 0 236.5 -81t93.5 -224t-93.5 -225t-236.5 -82h-344zM287 127h178q99 0 148 46.5t49 133.5q0 84 -53.5 131t-143.5 47h-178v-358zM938 0v967h152v-967h-152z" />
<glyph unicode="&#x44c;" horiz-adv-x="858" d="M137 0v967h150v-355h194q143 0 236.5 -81t93.5 -224t-93.5 -225t-236.5 -82h-344zM287 127h178q99 0 148 46.5t49 133.5q0 84 -53.5 131t-143.5 47h-178v-358z" />
<glyph unicode="&#x44d;" horiz-adv-x="993" d="M47 109l70 116q164 -116 286 -116q143 0 238.5 84t108.5 239h-517v135h515q-29 297 -322 297q-135 0 -285 -39l-32 133q158 41 327 41q103 0 188.5 -32t150 -94.5t100.5 -162t36 -227.5q0 -106 -29.5 -193t-79 -146t-116.5 -99t-140.5 -58t-152.5 -18q-161 0 -346 140z " />
<glyph unicode="&#x44e;" horiz-adv-x="1484" d="M137 0v967h150v-400h213q22 200 141.5 316t306.5 116q209 0 332 -139.5t123 -374.5q0 -237 -123 -376.5t-332 -139.5q-195 0 -316 124t-134 339h-211v-432h-150zM645 485q0 -196 83.5 -288.5t219.5 -92.5q137 0 221 92.5t84 288.5q0 193 -84 285t-221 92 q-136 0 -219.5 -92t-83.5 -285z" />
<glyph unicode="&#x44f;" horiz-adv-x="929" d="M61 0l281 385q-109 24 -165 98.5t-56 182.5q0 83 31 144.5t83.5 94t109.5 47.5t120 15h330v-967h-150v365h-139l-266 -365h-179zM274 666q0 -73 48.5 -122.5t140.5 -49.5h182v346h-182q-97 0 -143 -49.5t-46 -124.5z" />
<glyph unicode="&#x451;" horiz-adv-x="991" d="M82 463q0 105 25.5 194.5t68.5 151t99.5 105.5t118 64.5t124.5 20.5q408 0 408 -514h-690q0 -376 342 -376q117 0 272 112q10 -20 31.5 -56.5t31.5 -55.5q-44 -31 -69.5 -47.5t-75 -42.5t-102.5 -38t-111 -12q-95 0 -178.5 30t-150 88.5t-105.5 155.5t-39 220zM246 598 h532q-8 128 -65.5 196t-188.5 68q-219 0 -278 -264zM248 1268q0 42 30 73t70 31q45 0 76 -30.5t31 -73.5q0 -42 -31 -72.5t-76 -30.5q-40 0 -70 31t-30 72zM637 1268q0 43 30.5 73.5t71.5 30.5q43 0 74 -30.5t31 -73.5q0 -41 -31 -72t-74 -31q-41 0 -71.5 31t-30.5 72z" />
<glyph unicode="&#x452;" horiz-adv-x="1097" d="M6 1116v121h123v197h150v-197h313v-121h-313v-268q151 147 319 147q74 0 139.5 -25.5t119.5 -76.5t86 -136.5t32 -195.5v-541q0 -95 -23 -168.5t-60 -118.5t-88 -74.5t-101.5 -41.5t-106.5 -14v135q227 11 227 282v541q0 151 -72 224t-182 73q-68 0 -155.5 -42.5 t-134.5 -100.5v-715h-150v1116h-123z" />
<glyph unicode="&#x453;" horiz-adv-x="763" d="M143 0v967h594v-136h-444v-831h-150zM236 1114l200 332h174l-268 -332h-106z" />
<glyph unicode="&#x454;" horiz-adv-x="974" d="M82 483q0 124 41.5 224t111 162.5t157 96t183.5 33.5q144 0 310 -43l-35 -133q-157 41 -264 41q-145 0 -233.5 -74t-106.5 -223h514v-135h-516q12 -157 99.5 -240t229.5 -83q115 0 289 122l72 -118q-206 -144 -377 -144q-100 0 -183.5 29.5t-150 89.5t-104 161t-37.5 234 z" />
<glyph unicode="&#x455;" horiz-adv-x="874" d="M76 104l63 119q163 -119 297 -119q213 0 213 152q0 48 -29 82.5t-75 55t-102 37.5t-112 38t-102 49.5t-75 79t-29 119.5q0 128 88 206t244 78q152 0 317 -67l-47 -127q-158 63 -295 63q-82 0 -123 -41t-41 -102q0 -44 29.5 -75t76 -49.5t103.5 -35t113.5 -37.5t103 -49.5 t76 -79t29.5 -118.5q0 -76 -27 -135t-66 -91.5t-90.5 -53.5t-93.5 -27.5t-82 -6.5q-187 0 -364 135z" />
<glyph unicode="&#x456;" horiz-adv-x="440" d="M106 1284q0 44 31.5 75.5t71.5 31.5q44 0 74 -31t30 -76q0 -40 -30 -70t-74 -30q-40 0 -71.5 30.5t-31.5 69.5zM137 0v967h150v-967h-150z" />
<glyph unicode="&#x457;" horiz-adv-x="436" d="M27 1278q0 35 24 60.5t55 25.5q36 0 61.5 -25t25.5 -61q0 -34 -25 -58t-62 -24q-31 0 -55 24.5t-24 57.5zM143 0v967h150v-967h-150zM244 1278q0 35 24.5 60.5t57.5 25.5q36 0 60 -25t24 -61q0 -34 -24 -58t-60 -24q-33 0 -57.5 24.5t-24.5 57.5z" />
<glyph unicode="&#x458;" horiz-adv-x="430" d="M-84 -262q227 8 227 282v947h150v-947q0 -95 -23 -169t-59.5 -119.5t-87.5 -75t-101 -41.5t-106 -14v137zM115 1284q0 44 30.5 75.5t71.5 31.5q43 0 74 -31.5t31 -75.5q0 -40 -31 -70t-74 -30q-41 0 -71.5 30t-30.5 70z" />
<glyph unicode="&#x459;" horiz-adv-x="1447" d="M27 102q46 7 81.5 28.5t62 55.5t45.5 90t31 119t20 156t12 188.5t6 227.5h604v-355h180q143 0 236.5 -81t93.5 -224t-93.5 -225t-236.5 -82h-330v831h-319q-5 -116 -10.5 -196t-14.5 -167t-21 -144t-30.5 -115.5t-43.5 -95.5t-58.5 -69t-77 -49.5t-98.5 -25.5zM889 127 h164q99 0 148.5 46.5t49.5 133.5q0 84 -54 131t-144 47h-164v-358z" />
<glyph unicode="&#x45a;" horiz-adv-x="1470" d="M135 0v967h150v-375h479v375h149v-375h181q145 0 237 -76.5t92 -218.5q0 -138 -93 -217.5t-236 -79.5h-330v463h-479v-463h-150zM913 127h164q99 0 148 44.5t49 125.5q0 166 -197 166h-164v-336z" />
<glyph unicode="&#x45b;" horiz-adv-x="1196" d="M104 1118v121h123v195h150v-195h313v-121h-313v-270q151 147 319 147q74 0 139.5 -25.5t119.5 -76t86 -136t32 -196.5v-561h-151v561q0 151 -72 224t-182 73q-69 0 -157 -42t-134 -99v-717h-150v1118h-123z" />
<glyph unicode="&#x45c;" horiz-adv-x="925" d="M137 0v967h150v-400h141l287 400h168l-322 -447l330 -520h-180l-269 432h-155v-432h-150zM336 1114l201 332h174l-269 -332h-106z" />
<glyph unicode="&#x45e;" horiz-adv-x="1005" d="M27 967h161l320 -762l319 762h152l-578 -1366h-151l176 413zM135 1227l53 121q87 -46 159 -67t157 -21t156 21t159 67l53 -121q-97 -42 -181 -65t-187 -23q-170 0 -369 88z" />
<glyph unicode="&#x45f;" horiz-adv-x="1091" d="M137 0v967h150v-832h518v832h149v-967h-329l-31 -272h-98l-31 272h-328z" />
<glyph unicode="&#x490;" horiz-adv-x="907" d="M170 0v1434h551l61 249h92v-401h-538v-1282h-166z" />
<glyph unicode="&#x491;" horiz-adv-x="757" d="M137 0v967h475l31 196h88v-332h-444v-831h-150z" />
<glyph unicode="&#x2000;" horiz-adv-x="956" />
<glyph unicode="&#x2001;" horiz-adv-x="1913" />
<glyph unicode="&#x2002;" horiz-adv-x="956" />
<glyph unicode="&#x2003;" horiz-adv-x="1913" />
<glyph unicode="&#x2004;" horiz-adv-x="637" />
<glyph unicode="&#x2005;" horiz-adv-x="478" />
<glyph unicode="&#x2006;" horiz-adv-x="318" />
<glyph unicode="&#x2007;" horiz-adv-x="318" />
<glyph unicode="&#x2008;" horiz-adv-x="239" />
<glyph unicode="&#x2009;" horiz-adv-x="382" />
<glyph unicode="&#x200a;" horiz-adv-x="106" />
<glyph unicode="&#x2010;" horiz-adv-x="593" d="M61 461v119h471v-119h-471z" />
<glyph unicode="&#x2011;" horiz-adv-x="593" d="M61 461v119h471v-119h-471z" />
<glyph unicode="&#x2012;" horiz-adv-x="593" d="M61 461v119h471v-119h-471z" />
<glyph unicode="&#x2013;" horiz-adv-x="1105" d="M61 469v119h983v-119h-983z" />
<glyph unicode="&#x2014;" horiz-adv-x="1605" d="M61 469v119h1483v-119h-1483z" />
<glyph unicode="&#x2018;" horiz-adv-x="471" d="M102 1063q0 107 205 373l72 -41l-135 -250q45 -5 75.5 -37.5t30.5 -77.5q0 -46 -34.5 -81.5t-79.5 -35.5q-58 0 -96 40t-38 110z" />
<glyph unicode="&#x2019;" horiz-adv-x="471" d="M92 952l135 252q-44 3 -75 36t-31 77q0 46 34.5 81.5t80.5 35.5q58 0 95.5 -40t37.5 -110q0 -37 -24 -92t-62.5 -113t-65.5 -95.5t-53 -70.5z" />
<glyph unicode="&#x201a;" horiz-adv-x="442" d="M78 -260l135 250q-45 5 -76 37t-31 77t35 80t82 35q56 0 93.5 -39.5t37.5 -107.5q0 -48 -43 -131t-85 -142t-76 -100z" />
<glyph unicode="&#x201c;" horiz-adv-x="778" d="M102 1063q0 107 205 373l72 -41l-135 -250q45 -5 75.5 -37.5t30.5 -77.5q0 -46 -34.5 -81.5t-79.5 -35.5q-58 0 -96 40t-38 110zM410 1063q0 108 204 373l72 -41l-135 -250q45 -5 76.5 -37.5t31.5 -77.5q0 -46 -34.5 -81.5t-81.5 -35.5q-56 0 -94.5 40.5t-38.5 109.5z " />
<glyph unicode="&#x201d;" horiz-adv-x="778" d="M92 952l135 252q-44 3 -75 36t-31 77q0 46 34.5 81.5t80.5 35.5q58 0 95.5 -40t37.5 -110q0 -37 -24 -92t-62.5 -113t-65.5 -95.5t-53 -70.5zM401 952l134 252q-43 3 -75 36t-32 77q0 46 35 81.5t82 35.5q56 0 93.5 -40t37.5 -110q0 -48 -43.5 -131t-85 -140.5 t-76.5 -99.5z" />
<glyph unicode="&#x201e;" horiz-adv-x="778" d="M92 -260l135 250q-45 5 -75.5 37t-30.5 77t35 80t80 35q58 0 95.5 -39.5t37.5 -107.5q0 -48 -45 -132.5t-83.5 -139t-76.5 -101.5zM401 -260l134 250q-44 5 -75.5 37t-31.5 77t35 80t82 35q56 0 93.5 -39.5t37.5 -107.5q0 -69 -71 -183t-134 -190z" />
<glyph unicode="&#x2026;" horiz-adv-x="1497" d="M102 104q0 46 35 80.5t82 34.5q46 0 79.5 -34.5t33.5 -80.5q0 -47 -33.5 -80.5t-79.5 -33.5q-48 0 -82.5 33.5t-34.5 80.5zM633 104q0 46 35 80.5t82 34.5q45 0 78.5 -34.5t33.5 -80.5q0 -47 -33 -80.5t-79 -33.5q-48 0 -82.5 33.5t-34.5 80.5zM1165 104q0 46 34.5 80.5 t80.5 34.5q47 0 81 -34.5t34 -80.5q0 -47 -34 -80.5t-81 -33.5q-46 0 -80.5 33.5t-34.5 80.5z" />
<glyph unicode="&#x202f;" horiz-adv-x="382" />
<glyph unicode="&#x2039;" horiz-adv-x="690" d="M102 471l441 473l73 -65l-331 -408l331 -408l-73 -65z" />
<glyph unicode="&#x203a;" horiz-adv-x="690" d="M76 63l332 408l-332 408l71 65l441 -473l-441 -473z" />
<glyph unicode="&#x205f;" horiz-adv-x="478" />
<glyph unicode="&#x20ac;" horiz-adv-x="1290" d="M51 518v131h80v68q0 44 2 69h-82v132h99q23 121 72.5 219t126 172t187 114.5t246.5 40.5q220 0 402 -84l-60 -147q-76 30 -117 44t-101 25t-124 11q-172 0 -288.5 -104.5t-159.5 -290.5h721l-45 -132h-699q-2 -23 -2 -69q0 -48 2 -68h654l-43 -131h-590 q41 -188 154 -292.5t296 -104.5q102 0 197 42t199 118q23 -43 73 -129q-18 -17 -55.5 -42.5t-100 -59.5t-146.5 -57.5t-167 -23.5q-143 0 -255.5 40t-188.5 114.5t-123 172.5t-68 222h-96z" />
<glyph unicode="&#x2122;" horiz-adv-x="1693" d="M68 1327v107h628v-107h-256v-651h-118v651h-254zM756 676l24 758h170q219 -580 226 -598l227 598h168l26 -758h-114q-3 103 -11.5 311t-11.5 311l-235 -622h-109l-235 620q-3 -100 -23 -620h-102z" />
<glyph unicode="&#x25fc;" horiz-adv-x="962" d="M0 0v963h963v-963h-963z" />
</font>
</defs>
</svg>
